<?xml version="1.0" standalone="no"?>
<!DOCTYPE svg PUBLIC "-//W3C//DTD SVG 20010904//EN"
 "http://www.w3.org/TR/2001/REC-SVG-20010904/DTD/svg10.dtd">
<svg version="1.0" xmlns="http://www.w3.org/2000/svg"
 width="232.000000pt" height="215.000000pt" viewBox="0 0 232.000000 215.000000"
 preserveAspectRatio="xMidYMid meet">

<g transform="translate(0.000000,215.000000) scale(0.100000,-0.100000)"
fill="#000000" stroke="none">
<path d="M645 1826 c-177 -43 -353 -223 -395 -405 -30 -129 7 -300 88 -408 46
-62 731 -720 781 -750 55 -35 134 -32 192 6 24 16 202 186 396 378 345 342
352 350 392 433 82 171 74 338 -24 505 -59 102 -193 201 -320 236 -75 21 -206
17 -291 -9 -81 -25 -180 -86 -223 -139 l-30 -36 -60 56 c-133 122 -333 175
-506 133z m252 -70 c87 -23 175 -79 248 -158 l66 -72 26 35 c186 245 505 275
713 67 166 -165 178 -408 31 -603 -21 -27 -191 -200 -379 -382 l-340 -333 -52
0 c-52 0 -53 1 -139 83 -47 46 -205 197 -351 337 -146 139 -282 273 -303 299
-79 93 -112 191 -105 310 6 109 54 209 140 295 35 35 79 71 98 81 96 51 244
68 347 41z"/>
</g>
</svg>
